<mxfile host="app.diagrams.net" agent="Mozilla/5.0 (Macintosh; Intel Mac OS X 10_15_7) AppleWebKit/537.36 (KHTML, like Gecko) Chrome/130.0.0.0 Safari/537.36" version="24.8.4">
  <diagram name="Page-1" id="74e2e168-ea6b-b213-b513-2b3c1d86103e">
    <mxGraphModel dx="744" dy="617" grid="1" gridSize="10" guides="1" tooltips="1" connect="1" arrows="1" fold="1" page="1" pageScale="1" pageWidth="1100" pageHeight="850" background="none" math="0" shadow="0">
      <root>
        <mxCell id="0" />
        <mxCell id="1" parent="0" />
        <mxCell id="eKvcL8s3Wj8_VTXEyFbJ-4" style="edgeStyle=none;curved=1;rounded=0;orthogonalLoop=1;jettySize=auto;html=1;exitX=0.5;exitY=1;exitDx=0;exitDy=0;fontSize=12;startSize=8;endSize=8;" edge="1" parent="1" source="eKvcL8s3Wj8_VTXEyFbJ-1" target="eKvcL8s3Wj8_VTXEyFbJ-3">
          <mxGeometry relative="1" as="geometry" />
        </mxCell>
        <mxCell id="eKvcL8s3Wj8_VTXEyFbJ-1" value="query" style="text;html=1;align=center;verticalAlign=middle;whiteSpace=wrap;rounded=0;fontSize=16;" vertex="1" parent="1">
          <mxGeometry x="280" y="110" width="60" height="30" as="geometry" />
        </mxCell>
        <mxCell id="eKvcL8s3Wj8_VTXEyFbJ-5" style="edgeStyle=none;curved=1;rounded=0;orthogonalLoop=1;jettySize=auto;html=1;exitX=0;exitY=0.5;exitDx=0;exitDy=0;fontSize=12;startSize=8;endSize=8;entryX=1;entryY=0.5;entryDx=0;entryDy=0;" edge="1" parent="1" source="eKvcL8s3Wj8_VTXEyFbJ-3" target="eKvcL8s3Wj8_VTXEyFbJ-7">
          <mxGeometry relative="1" as="geometry">
            <mxPoint x="170" y="215" as="targetPoint" />
          </mxGeometry>
        </mxCell>
        <mxCell id="eKvcL8s3Wj8_VTXEyFbJ-6" value="空" style="edgeLabel;html=1;align=center;verticalAlign=middle;resizable=0;points=[];fontSize=12;" vertex="1" connectable="0" parent="eKvcL8s3Wj8_VTXEyFbJ-5">
          <mxGeometry x="-0.1714" relative="1" as="geometry">
            <mxPoint as="offset" />
          </mxGeometry>
        </mxCell>
        <mxCell id="eKvcL8s3Wj8_VTXEyFbJ-8" style="edgeStyle=none;curved=1;rounded=0;orthogonalLoop=1;jettySize=auto;html=1;exitX=0.5;exitY=1;exitDx=0;exitDy=0;fontSize=12;startSize=8;endSize=8;entryX=0.5;entryY=0;entryDx=0;entryDy=0;" edge="1" parent="1" source="eKvcL8s3Wj8_VTXEyFbJ-3" target="eKvcL8s3Wj8_VTXEyFbJ-10">
          <mxGeometry relative="1" as="geometry">
            <mxPoint x="310" y="330" as="targetPoint" />
          </mxGeometry>
        </mxCell>
        <mxCell id="eKvcL8s3Wj8_VTXEyFbJ-9" value="非空" style="edgeLabel;html=1;align=center;verticalAlign=middle;resizable=0;points=[];fontSize=12;" vertex="1" connectable="0" parent="eKvcL8s3Wj8_VTXEyFbJ-8">
          <mxGeometry x="-0.25" relative="1" as="geometry">
            <mxPoint as="offset" />
          </mxGeometry>
        </mxCell>
        <mxCell id="eKvcL8s3Wj8_VTXEyFbJ-3" value="用户作答是否存在" style="rhombus;whiteSpace=wrap;html=1;" vertex="1" parent="1">
          <mxGeometry x="240" y="170" width="140" height="90" as="geometry" />
        </mxCell>
        <mxCell id="eKvcL8s3Wj8_VTXEyFbJ-7" value="入库mathGPT answer,入库权重w0" style="rounded=0;whiteSpace=wrap;html=1;" vertex="1" parent="1">
          <mxGeometry x="40" y="185" width="120" height="60" as="geometry" />
        </mxCell>
        <mxCell id="eKvcL8s3Wj8_VTXEyFbJ-11" style="edgeStyle=none;curved=1;rounded=0;orthogonalLoop=1;jettySize=auto;html=1;exitX=0.5;exitY=1;exitDx=0;exitDy=0;fontSize=12;startSize=8;endSize=8;entryX=0.5;entryY=0;entryDx=0;entryDy=0;" edge="1" parent="1" source="eKvcL8s3Wj8_VTXEyFbJ-10" target="eKvcL8s3Wj8_VTXEyFbJ-12">
          <mxGeometry relative="1" as="geometry">
            <mxPoint x="310" y="470" as="targetPoint" />
          </mxGeometry>
        </mxCell>
        <mxCell id="eKvcL8s3Wj8_VTXEyFbJ-10" value="用户作答入库权重w1&lt;div&gt;&lt;br&gt;&lt;div&gt;mathGPT answer入库权重w2&lt;/div&gt;&lt;/div&gt;" style="rounded=0;whiteSpace=wrap;html=1;" vertex="1" parent="1">
          <mxGeometry x="240" y="345" width="140" height="80" as="geometry" />
        </mxCell>
        <mxCell id="eKvcL8s3Wj8_VTXEyFbJ-14" style="edgeStyle=none;curved=1;rounded=0;orthogonalLoop=1;jettySize=auto;html=1;exitX=0;exitY=0.5;exitDx=0;exitDy=0;fontSize=12;startSize=8;endSize=8;" edge="1" parent="1" source="eKvcL8s3Wj8_VTXEyFbJ-12" target="eKvcL8s3Wj8_VTXEyFbJ-16">
          <mxGeometry relative="1" as="geometry">
            <mxPoint x="170" y="550" as="targetPoint" />
          </mxGeometry>
        </mxCell>
        <mxCell id="eKvcL8s3Wj8_VTXEyFbJ-15" value="否" style="edgeLabel;html=1;align=center;verticalAlign=middle;resizable=0;points=[];fontSize=12;" vertex="1" connectable="0" parent="eKvcL8s3Wj8_VTXEyFbJ-14">
          <mxGeometry x="-0.1733" y="1" relative="1" as="geometry">
            <mxPoint as="offset" />
          </mxGeometry>
        </mxCell>
        <mxCell id="eKvcL8s3Wj8_VTXEyFbJ-19" style="edgeStyle=none;curved=1;rounded=0;orthogonalLoop=1;jettySize=auto;html=1;exitX=0.5;exitY=1;exitDx=0;exitDy=0;fontSize=12;startSize=8;endSize=8;" edge="1" parent="1" source="eKvcL8s3Wj8_VTXEyFbJ-12">
          <mxGeometry relative="1" as="geometry">
            <mxPoint x="310" y="650" as="targetPoint" />
          </mxGeometry>
        </mxCell>
        <mxCell id="eKvcL8s3Wj8_VTXEyFbJ-20" value="是" style="edgeLabel;html=1;align=center;verticalAlign=middle;resizable=0;points=[];fontSize=12;" vertex="1" connectable="0" parent="eKvcL8s3Wj8_VTXEyFbJ-19">
          <mxGeometry x="-0.3091" y="1" relative="1" as="geometry">
            <mxPoint as="offset" />
          </mxGeometry>
        </mxCell>
        <mxCell id="eKvcL8s3Wj8_VTXEyFbJ-12" value="是否改变簇中心" style="rhombus;whiteSpace=wrap;html=1;" vertex="1" parent="1">
          <mxGeometry x="245" y="475" width="130" height="120" as="geometry" />
        </mxCell>
        <mxCell id="eKvcL8s3Wj8_VTXEyFbJ-16" value="" style="ellipse;whiteSpace=wrap;html=1;fillColor=#0d0d0d;" vertex="1" parent="1">
          <mxGeometry x="124" y="531" width="10" height="10" as="geometry" />
        </mxCell>
        <mxCell id="eKvcL8s3Wj8_VTXEyFbJ-22" style="edgeStyle=none;curved=1;rounded=0;orthogonalLoop=1;jettySize=auto;html=1;exitX=0.5;exitY=1;exitDx=0;exitDy=0;fontSize=12;startSize=8;endSize=8;entryX=0.5;entryY=0;entryDx=0;entryDy=0;" edge="1" parent="1" source="eKvcL8s3Wj8_VTXEyFbJ-21" target="eKvcL8s3Wj8_VTXEyFbJ-23">
          <mxGeometry relative="1" as="geometry">
            <mxPoint x="310" y="760" as="targetPoint" />
          </mxGeometry>
        </mxCell>
        <mxCell id="eKvcL8s3Wj8_VTXEyFbJ-21" value="新簇中心的mathGPTanswer再入库一次，入库权重w3" style="rounded=0;whiteSpace=wrap;html=1;" vertex="1" parent="1">
          <mxGeometry x="250" y="650" width="120" height="60" as="geometry" />
        </mxCell>
        <mxCell id="eKvcL8s3Wj8_VTXEyFbJ-23" value="" style="ellipse;whiteSpace=wrap;html=1;fillColor=#0d0d0d;" vertex="1" parent="1">
          <mxGeometry x="305" y="760" width="10" height="10" as="geometry" />
        </mxCell>
        <mxCell id="eKvcL8s3Wj8_VTXEyFbJ-24" style="edgeStyle=none;curved=1;rounded=0;orthogonalLoop=1;jettySize=auto;html=1;exitX=0.5;exitY=1;exitDx=0;exitDy=0;fontSize=12;startSize=8;endSize=8;" edge="1" parent="1" source="eKvcL8s3Wj8_VTXEyFbJ-25" target="eKvcL8s3Wj8_VTXEyFbJ-30">
          <mxGeometry relative="1" as="geometry" />
        </mxCell>
        <mxCell id="eKvcL8s3Wj8_VTXEyFbJ-25" value="问题+答案" style="text;html=1;align=center;verticalAlign=middle;whiteSpace=wrap;rounded=0;fontSize=16;" vertex="1" parent="1">
          <mxGeometry x="684.5" y="99" width="90" height="30" as="geometry" />
        </mxCell>
        <mxCell id="eKvcL8s3Wj8_VTXEyFbJ-26" style="edgeStyle=orthogonalEdgeStyle;rounded=0;orthogonalLoop=1;jettySize=auto;html=1;exitX=0;exitY=0.5;exitDx=0;exitDy=0;fontSize=12;startSize=8;endSize=8;endArrow=classic;endFill=1;" edge="1" parent="1" source="eKvcL8s3Wj8_VTXEyFbJ-30">
          <mxGeometry relative="1" as="geometry">
            <mxPoint x="720" y="150" as="targetPoint" />
          </mxGeometry>
        </mxCell>
        <mxCell id="eKvcL8s3Wj8_VTXEyFbJ-27" value="问题&amp;lt;答案" style="edgeLabel;html=1;align=center;verticalAlign=middle;resizable=0;points=[];fontSize=12;" vertex="1" connectable="0" parent="eKvcL8s3Wj8_VTXEyFbJ-26">
          <mxGeometry x="-0.1714" relative="1" as="geometry">
            <mxPoint as="offset" />
          </mxGeometry>
        </mxCell>
        <mxCell id="eKvcL8s3Wj8_VTXEyFbJ-28" style="edgeStyle=none;curved=1;rounded=0;orthogonalLoop=1;jettySize=auto;html=1;exitX=0.5;exitY=1;exitDx=0;exitDy=0;fontSize=12;startSize=8;endSize=8;entryX=0.5;entryY=0;entryDx=0;entryDy=0;" edge="1" parent="1" source="eKvcL8s3Wj8_VTXEyFbJ-30" target="eKvcL8s3Wj8_VTXEyFbJ-33">
          <mxGeometry relative="1" as="geometry">
            <mxPoint x="730" y="330" as="targetPoint" />
          </mxGeometry>
        </mxCell>
        <mxCell id="eKvcL8s3Wj8_VTXEyFbJ-29" value="问题数=答案数" style="edgeLabel;html=1;align=center;verticalAlign=middle;resizable=0;points=[];fontSize=12;" vertex="1" connectable="0" parent="eKvcL8s3Wj8_VTXEyFbJ-28">
          <mxGeometry x="-0.25" relative="1" as="geometry">
            <mxPoint as="offset" />
          </mxGeometry>
        </mxCell>
        <mxCell id="eKvcL8s3Wj8_VTXEyFbJ-45" style="edgeStyle=orthogonalEdgeStyle;rounded=0;orthogonalLoop=1;jettySize=auto;html=1;fontSize=12;startSize=8;endSize=8;entryX=0.564;entryY=0;entryDx=0;entryDy=0;entryPerimeter=0;" edge="1" parent="1" source="eKvcL8s3Wj8_VTXEyFbJ-30" target="eKvcL8s3Wj8_VTXEyFbJ-48">
          <mxGeometry relative="1" as="geometry">
            <mxPoint x="950" y="330" as="targetPoint" />
          </mxGeometry>
        </mxCell>
        <mxCell id="eKvcL8s3Wj8_VTXEyFbJ-46" value="问题&amp;gt;答案" style="edgeLabel;html=1;align=center;verticalAlign=middle;resizable=0;points=[];fontSize=12;" vertex="1" connectable="0" parent="eKvcL8s3Wj8_VTXEyFbJ-45">
          <mxGeometry x="-0.1538" relative="1" as="geometry">
            <mxPoint as="offset" />
          </mxGeometry>
        </mxCell>
        <mxCell id="eKvcL8s3Wj8_VTXEyFbJ-30" value="确定问题数量/与答案数量比较" style="rhombus;whiteSpace=wrap;html=1;" vertex="1" parent="1">
          <mxGeometry x="660" y="170" width="140" height="90" as="geometry" />
        </mxCell>
        <mxCell id="eKvcL8s3Wj8_VTXEyFbJ-32" style="edgeStyle=none;curved=1;rounded=0;orthogonalLoop=1;jettySize=auto;html=1;exitX=0.5;exitY=1;exitDx=0;exitDy=0;fontSize=12;startSize=8;endSize=8;entryX=0.5;entryY=0;entryDx=0;entryDy=0;" edge="1" parent="1" source="eKvcL8s3Wj8_VTXEyFbJ-33" target="eKvcL8s3Wj8_VTXEyFbJ-38">
          <mxGeometry relative="1" as="geometry">
            <mxPoint x="730" y="470" as="targetPoint" />
          </mxGeometry>
        </mxCell>
        <mxCell id="eKvcL8s3Wj8_VTXEyFbJ-33" value="逐一分析" style="rounded=0;whiteSpace=wrap;html=1;" vertex="1" parent="1">
          <mxGeometry x="660" y="345" width="140" height="25" as="geometry" />
        </mxCell>
        <mxCell id="eKvcL8s3Wj8_VTXEyFbJ-34" style="edgeStyle=none;curved=1;rounded=0;orthogonalLoop=1;jettySize=auto;html=1;exitX=0;exitY=0.5;exitDx=0;exitDy=0;fontSize=12;startSize=8;endSize=8;entryX=0;entryY=0.5;entryDx=0;entryDy=0;" edge="1" parent="1" source="eKvcL8s3Wj8_VTXEyFbJ-38" target="eKvcL8s3Wj8_VTXEyFbJ-53">
          <mxGeometry relative="1" as="geometry">
            <mxPoint x="665" y="530" as="targetPoint" />
          </mxGeometry>
        </mxCell>
        <mxCell id="eKvcL8s3Wj8_VTXEyFbJ-35" value="是" style="edgeLabel;html=1;align=center;verticalAlign=middle;resizable=0;points=[];fontSize=12;" vertex="1" connectable="0" parent="eKvcL8s3Wj8_VTXEyFbJ-34">
          <mxGeometry x="-0.1733" y="1" relative="1" as="geometry">
            <mxPoint as="offset" />
          </mxGeometry>
        </mxCell>
        <mxCell id="eKvcL8s3Wj8_VTXEyFbJ-36" style="edgeStyle=none;curved=1;rounded=0;orthogonalLoop=1;jettySize=auto;html=1;exitX=1;exitY=0.5;exitDx=0;exitDy=0;fontSize=12;startSize=8;endSize=8;entryX=1;entryY=0.5;entryDx=0;entryDy=0;" edge="1" parent="1" source="eKvcL8s3Wj8_VTXEyFbJ-38" target="eKvcL8s3Wj8_VTXEyFbJ-53">
          <mxGeometry relative="1" as="geometry">
            <mxPoint x="800" y="530" as="targetPoint" />
          </mxGeometry>
        </mxCell>
        <mxCell id="eKvcL8s3Wj8_VTXEyFbJ-37" value="否" style="edgeLabel;html=1;align=center;verticalAlign=middle;resizable=0;points=[];fontSize=12;" vertex="1" connectable="0" parent="eKvcL8s3Wj8_VTXEyFbJ-36">
          <mxGeometry x="-0.3091" y="1" relative="1" as="geometry">
            <mxPoint as="offset" />
          </mxGeometry>
        </mxCell>
        <mxCell id="eKvcL8s3Wj8_VTXEyFbJ-38" value="是否只有一个问题" style="rhombus;whiteSpace=wrap;html=1;" vertex="1" parent="1">
          <mxGeometry x="663" y="400" width="135" height="70" as="geometry" />
        </mxCell>
        <mxCell id="eKvcL8s3Wj8_VTXEyFbJ-49" style="edgeStyle=none;curved=1;rounded=0;orthogonalLoop=1;jettySize=auto;html=1;fontSize=12;startSize=8;endSize=8;" edge="1" parent="1" source="eKvcL8s3Wj8_VTXEyFbJ-48">
          <mxGeometry relative="1" as="geometry">
            <mxPoint x="730" y="280" as="targetPoint" />
          </mxGeometry>
        </mxCell>
        <mxCell id="eKvcL8s3Wj8_VTXEyFbJ-48" value="答案补充空值" style="rounded=0;whiteSpace=wrap;html=1;" vertex="1" parent="1">
          <mxGeometry x="920" y="263" width="110" height="35" as="geometry" />
        </mxCell>
        <mxCell id="eKvcL8s3Wj8_VTXEyFbJ-55" style="edgeStyle=none;curved=1;rounded=0;orthogonalLoop=1;jettySize=auto;html=1;fontSize=12;startSize=8;endSize=8;exitX=0;exitY=0.5;exitDx=0;exitDy=0;entryX=0.5;entryY=0;entryDx=0;entryDy=0;" edge="1" parent="1" source="eKvcL8s3Wj8_VTXEyFbJ-53" target="eKvcL8s3Wj8_VTXEyFbJ-65">
          <mxGeometry relative="1" as="geometry">
            <mxPoint x="620" y="650" as="targetPoint" />
            <mxPoint x="590" y="690" as="sourcePoint" />
          </mxGeometry>
        </mxCell>
        <mxCell id="eKvcL8s3Wj8_VTXEyFbJ-56" value="是" style="edgeLabel;html=1;align=center;verticalAlign=middle;resizable=0;points=[];fontSize=12;" vertex="1" connectable="0" parent="eKvcL8s3Wj8_VTXEyFbJ-55">
          <mxGeometry x="-0.0203" relative="1" as="geometry">
            <mxPoint as="offset" />
          </mxGeometry>
        </mxCell>
        <mxCell id="eKvcL8s3Wj8_VTXEyFbJ-53" value="是否存在问题解的数量超过k,k=24" style="rhombus;whiteSpace=wrap;html=1;" vertex="1" parent="1">
          <mxGeometry x="665" y="531" width="135" height="70" as="geometry" />
        </mxCell>
        <mxCell id="eKvcL8s3Wj8_VTXEyFbJ-57" style="edgeStyle=none;curved=1;rounded=0;orthogonalLoop=1;jettySize=auto;html=1;fontSize=12;startSize=8;endSize=8;exitX=0;exitY=0.5;exitDx=0;exitDy=0;entryX=0;entryY=0.25;entryDx=0;entryDy=0;" edge="1" parent="1" source="eKvcL8s3Wj8_VTXEyFbJ-53" target="eKvcL8s3Wj8_VTXEyFbJ-67">
          <mxGeometry relative="1" as="geometry">
            <mxPoint x="700" y="650" as="targetPoint" />
            <mxPoint x="675" y="576" as="sourcePoint" />
          </mxGeometry>
        </mxCell>
        <mxCell id="eKvcL8s3Wj8_VTXEyFbJ-58" value="否" style="edgeLabel;html=1;align=center;verticalAlign=middle;resizable=0;points=[];fontSize=12;" vertex="1" connectable="0" parent="eKvcL8s3Wj8_VTXEyFbJ-57">
          <mxGeometry x="-0.0203" relative="1" as="geometry">
            <mxPoint as="offset" />
          </mxGeometry>
        </mxCell>
        <mxCell id="eKvcL8s3Wj8_VTXEyFbJ-60" style="edgeStyle=none;curved=1;rounded=0;orthogonalLoop=1;jettySize=auto;html=1;fontSize=12;startSize=8;endSize=8;exitX=1;exitY=0.5;exitDx=0;exitDy=0;" edge="1" parent="1" source="eKvcL8s3Wj8_VTXEyFbJ-53" target="eKvcL8s3Wj8_VTXEyFbJ-68">
          <mxGeometry relative="1" as="geometry">
            <mxPoint x="780" y="650" as="targetPoint" />
            <mxPoint x="685" y="586" as="sourcePoint" />
          </mxGeometry>
        </mxCell>
        <mxCell id="eKvcL8s3Wj8_VTXEyFbJ-61" value="是,部分" style="edgeLabel;html=1;align=center;verticalAlign=middle;resizable=0;points=[];fontSize=12;" vertex="1" connectable="0" parent="eKvcL8s3Wj8_VTXEyFbJ-60">
          <mxGeometry x="-0.0203" relative="1" as="geometry">
            <mxPoint as="offset" />
          </mxGeometry>
        </mxCell>
        <mxCell id="eKvcL8s3Wj8_VTXEyFbJ-62" style="edgeStyle=none;curved=1;rounded=0;orthogonalLoop=1;jettySize=auto;html=1;fontSize=12;startSize=8;endSize=8;exitX=1;exitY=0.5;exitDx=0;exitDy=0;entryX=1;entryY=0.5;entryDx=0;entryDy=0;" edge="1" parent="1" source="eKvcL8s3Wj8_VTXEyFbJ-53" target="eKvcL8s3Wj8_VTXEyFbJ-67">
          <mxGeometry relative="1" as="geometry">
            <mxPoint x="840" y="650" as="targetPoint" />
            <mxPoint x="810" y="576" as="sourcePoint" />
          </mxGeometry>
        </mxCell>
        <mxCell id="eKvcL8s3Wj8_VTXEyFbJ-63" value="否" style="edgeLabel;html=1;align=center;verticalAlign=middle;resizable=0;points=[];fontSize=12;" vertex="1" connectable="0" parent="eKvcL8s3Wj8_VTXEyFbJ-62">
          <mxGeometry x="-0.0203" relative="1" as="geometry">
            <mxPoint as="offset" />
          </mxGeometry>
        </mxCell>
        <mxCell id="eKvcL8s3Wj8_VTXEyFbJ-65" value="开放题" style="whiteSpace=wrap;html=1;" vertex="1" parent="1">
          <mxGeometry x="600" y="710" width="80" height="30" as="geometry" />
        </mxCell>
        <mxCell id="eKvcL8s3Wj8_VTXEyFbJ-67" value="正常题" style="whiteSpace=wrap;html=1;" vertex="1" parent="1">
          <mxGeometry x="695" y="710" width="70" height="30" as="geometry" />
        </mxCell>
        <mxCell id="eKvcL8s3Wj8_VTXEyFbJ-68" value="部分开放题" style="whiteSpace=wrap;html=1;" vertex="1" parent="1">
          <mxGeometry x="800" y="710" width="80" height="30" as="geometry" />
        </mxCell>
        <mxCell id="eKvcL8s3Wj8_VTXEyFbJ-71" style="edgeStyle=none;curved=1;rounded=0;orthogonalLoop=1;jettySize=auto;html=1;fontSize=12;startSize=8;endSize=8;entryX=0.5;entryY=0;entryDx=0;entryDy=0;exitX=1;exitY=0.5;exitDx=0;exitDy=0;" edge="1" parent="1" source="eKvcL8s3Wj8_VTXEyFbJ-53" target="eKvcL8s3Wj8_VTXEyFbJ-65">
          <mxGeometry relative="1" as="geometry">
            <mxPoint x="801" y="675" as="targetPoint" />
            <mxPoint x="800" y="570" as="sourcePoint" />
          </mxGeometry>
        </mxCell>
        <mxCell id="eKvcL8s3Wj8_VTXEyFbJ-72" value="是,全部" style="edgeLabel;html=1;align=center;verticalAlign=middle;resizable=0;points=[];fontSize=12;" vertex="1" connectable="0" parent="eKvcL8s3Wj8_VTXEyFbJ-71">
          <mxGeometry x="-0.0203" relative="1" as="geometry">
            <mxPoint as="offset" />
          </mxGeometry>
        </mxCell>
      </root>
    </mxGraphModel>
  </diagram>
</mxfile>
